<?xml version="1.0" encoding="UTF-8" standalone="no"?>
<svg
   xmlns:dc="http://purl.org/dc/elements/1.1/"
   xmlns:cc="http://creativecommons.org/ns#"
   xmlns:rdf="http://www.w3.org/1999/02/22-rdf-syntax-ns#"
   xmlns:svg="http://www.w3.org/2000/svg"
   xmlns="http://www.w3.org/2000/svg"
   viewBox="0 0 2560 1440"
   height="1440"
   width="2560"
   xml:space="preserve"
   id="svg2"
   version="1.1"><metadata
     id="metadata8"><rdf:RDF><cc:Work
         rdf:about=""><dc:format>image/svg+xml</dc:format><dc:type
           rdf:resource="http://purl.org/dc/dcmitype/StillImage" /></cc:Work></rdf:RDF></metadata><defs
     id="defs6"><linearGradient
       id="linearGradient36"
       spreadMethod="pad"
       gradientTransform="matrix(-349.01233,-604.50708,-604.50708,349.01233,983.16034,849.3194)"
       gradientUnits="userSpaceOnUse"
       y2="0"
       x2="1"
       y1="0"
       x1="0"><stop
         id="stop24"
         offset="0"
         style="stop-opacity:1;stop-color:#ff0000" /><stop
         id="stop26"
         offset="0.34292616"
         style="stop-opacity:1;stop-color:#950055" /><stop
         id="stop28"
         offset="0.471328"
         style="stop-opacity:1;stop-color:#950055" /><stop
         id="stop30"
         offset="0.53384827"
         style="stop-opacity:1;stop-color:#950055" /><stop
         id="stop32"
         offset="1"
         style="stop-opacity:1;stop-color:#0000c3" /><stop
         id="stop34"
         offset="1"
         style="stop-opacity:1;stop-color:#0000c3" /></linearGradient><linearGradient
       id="linearGradient64"
       spreadMethod="pad"
       gradientTransform="matrix(-464.63971,-804.77954,-804.77954,464.63971,939.48499,1004.5486)"
       gradientUnits="userSpaceOnUse"
       y2="0"
       x2="1"
       y1="0"
       x1="0"><stop
         id="stop52"
         offset="0"
         style="stop-opacity:1;stop-color:#ff0000" /><stop
         id="stop54"
         offset="0.34292616"
         style="stop-opacity:1;stop-color:#950055" /><stop
         id="stop56"
         offset="0.471328"
         style="stop-opacity:1;stop-color:#950055" /><stop
         id="stop58"
         offset="0.53384827"
         style="stop-opacity:1;stop-color:#950055" /><stop
         id="stop60"
         offset="1"
         style="stop-opacity:1;stop-color:#0000c3" /><stop
         id="stop62"
         offset="1"
         style="stop-opacity:1;stop-color:#0000c3" /></linearGradient><linearGradient
       id="linearGradient92"
       spreadMethod="pad"
       gradientTransform="matrix(-603.49109,-1045.2772,-1045.2772,603.49109,905.10468,1181.2412)"
       gradientUnits="userSpaceOnUse"
       y2="0"
       x2="1"
       y1="0"
       x1="0"><stop
         id="stop80"
         offset="0"
         style="stop-opacity:1;stop-color:#ff0000" /><stop
         id="stop82"
         offset="0.34292616"
         style="stop-opacity:1;stop-color:#950055" /><stop
         id="stop84"
         offset="0.471328"
         style="stop-opacity:1;stop-color:#950055" /><stop
         id="stop86"
         offset="0.53384827"
         style="stop-opacity:1;stop-color:#950055" /><stop
         id="stop88"
         offset="1"
         style="stop-opacity:1;stop-color:#0000c3" /><stop
         id="stop90"
         offset="1"
         style="stop-opacity:1;stop-color:#0000c3" /></linearGradient><clipPath
       id="clipPath102"
       clipPathUnits="userSpaceOnUse"><path
         id="path100"
         d="M 0,1080 H 1920 V 0 H 0 Z" /></clipPath><clipPath
       id="clipPath170"
       clipPathUnits="userSpaceOnUse"><path
         id="path168"
         d="M 0,1080 H 1920 V 0 H 0 Z" /></clipPath></defs><g
     transform="matrix(1.3333333,0,0,-1.3333333,0,1440)"
     id="g10"><g
       id="g12"><g
         id="g14"><g
           id="g20"><g
             id="g22"><path
               id="path38"
               style="fill:url(#linearGradient36);stroke:none"
               d="m 962.771,858.79 c 8.739,0 0.125,0.394 -2.787,0.394 v 0 c -1.457,0 -1.488,-0.098 2.787,-0.394 M 510.989,509.43 c 0,-170.44 184.337,-353.564 382.073,-373.08 v 0 C 738.517,181.566 613.291,348.556 613.291,497.767 v 0 c 0,196.382 120.607,339.457 349.48,361.023 v 0 c -249.812,0 -451.782,-146.526 -451.782,-349.36" /></g></g></g></g><g
       id="g40"><g
         id="g42"><g
           id="g48"><g
             id="g50"><path
               id="path66"
               style="fill:url(#linearGradient64);stroke:none"
               d="m 271.448,502.2 c 0,-203.886 237.08,-376.004 552.956,-425.568 v 0 C 580.498,151.92 410.1,330.937 410.1,509.43 v 0 c 0,234.919 270.847,403.313 643.714,429.111 v 0 c -20.894,1.062 -24.114,2.994 -45.468,2.994 v 0 C 601.368,941.535 271.448,744.838 271.448,502.2" /></g></g></g></g><g
       id="g68"><g
         id="g70"><g
           id="g76"><g
             id="g78"><path
               id="path94"
               style="fill:url(#linearGradient92);stroke:none"
               d="M 28.937,509.43 C 28.937,272.787 309.01,37.149 768.901,22.615 v 0 C 404.216,89.465 181.618,301.93 181.618,509.099 v 0 c 0,272.662 426.159,497.249 974.549,527.192 v 0 c -30.73,1.231 -61.802,1.897 -93.209,1.897 v 0 C 464.4,1038.188 28.937,791.05 28.937,509.43" /></g></g></g></g><g
       id="g96"><g
         clip-path="url(#clipPath102)"
         id="g98"><g
           transform="translate(790.4927,406.9912)"
           id="g104"><path
             id="path106"
             style="fill:#f50000;fill-opacity:1;fill-rule:nonzero;stroke:none"
             d="M 0,0 3.946,21.774 H 23.859 L 19.915,0 Z m -25.723,-141.81 16.593,91.409 c 1.071,6.115 1.609,11.346 1.609,15.695 0,2.357 -0.621,3.794 -1.861,4.31 -1.241,0.515 -5.448,1.068 -12.622,1.659 l -1.81,0.11 1.207,6.853 h 38.578 l -16.612,-91.417 c -1.073,-6.041 -1.609,-11.307 -1.609,-15.799 0,-2.359 0.619,-3.796 1.86,-4.311 1.24,-0.514 5.447,-1.03 12.622,-1.545 l 1.81,-0.111 -1.207,-6.853 z" /></g><g
           transform="translate(824.3091,265.1816)"
           id="g108"><path
             id="path110"
             style="fill:#f50000;fill-opacity:1;fill-rule:nonzero;stroke:none"
             d="m 0,0 16.58,91.408 c 1.072,6.115 1.609,11.347 1.609,15.696 0,2.357 -0.62,3.793 -1.86,4.31 -1.242,0.515 -5.449,1.067 -12.622,1.658 l -1.811,0.111 1.208,6.852 h 38.56 L 32.779,71.04 c 8.643,15.925 18.056,28.532 28.241,37.823 10.184,9.29 19.667,13.936 28.444,13.936 5.829,0 10.201,-1.72 13.116,-5.157 2.915,-3.439 4.374,-8.632 4.374,-15.581 0,-3.403 -0.639,-8.651 -1.912,-15.748 L 94.578,28.618 c -1.073,-6.041 -1.609,-11.306 -1.609,-15.799 0,-2.358 0.619,-3.796 1.861,-4.31 1.239,-0.515 5.446,-1.03 12.622,-1.545 L 109.262,6.853 108.055,0 H 69.496 l 16.219,89.419 c 0.67,3.931 1.006,7.044 1.006,9.345 0,2.595 -0.588,4.524 -1.762,5.785 -1.174,1.261 -2.935,1.891 -5.283,1.891 -10.87,0 -27.509,-17.349 -49.917,-52.045 L 19.891,0 Z" /></g><g
           transform="translate(954.25,265.1816)"
           id="g112"><path
             id="path114"
             style="fill:#f50000;fill-opacity:1;fill-rule:nonzero;stroke:none"
             d="m 0,0 16.58,91.408 c 1.072,6.115 1.609,11.347 1.609,15.696 0,2.357 -0.621,3.793 -1.861,4.31 -1.24,0.515 -5.447,1.067 -12.621,1.658 l -1.811,0.111 1.208,6.852 h 38.56 L 32.779,71.04 c 8.643,15.925 18.057,28.532 28.241,37.823 10.185,9.29 19.666,13.936 28.445,13.936 5.828,0 10.199,-1.72 13.115,-5.157 2.914,-3.439 4.373,-8.632 4.373,-15.581 0,-3.403 -0.639,-8.651 -1.91,-15.748 L 94.578,28.618 c -1.074,-6.041 -1.609,-11.306 -1.609,-15.799 0,-2.358 0.619,-3.796 1.861,-4.31 1.24,-0.515 5.445,-1.03 12.621,-1.545 L 109.262,6.853 108.055,0 H 69.496 l 16.219,89.419 c 0.67,3.931 1.006,7.044 1.006,9.345 0,2.595 -0.588,4.524 -1.762,5.785 -1.174,1.261 -2.936,1.891 -5.283,1.891 -10.869,0 -27.508,-17.349 -49.918,-52.045 L 19.891,0 Z" /></g><g
           transform="translate(1120.6992,270.8184)"
           id="g116"><path
             id="path118"
             style="fill:#f50000;fill-opacity:1;fill-rule:nonzero;stroke:none"
             d="m 0,0 c 10.66,0 20.047,7.78 28.16,23.345 8.112,15.563 12.17,33.487 12.17,53.772 0,10.549 -1.544,18.459 -4.627,23.734 -3.085,5.274 -7.744,7.911 -13.979,7.911 -10.394,0 -19.613,-7.967 -27.659,-23.899 -8.045,-15.933 -12.068,-34.226 -12.068,-54.878 0,-8.853 1.675,-16.063 5.028,-21.631 C -9.622,2.784 -5.298,0 0,0 m -5.13,-8.4 c -11.532,0 -20.182,3.466 -25.947,10.398 -5.768,6.933 -8.65,17.295 -8.65,31.087 0,22.199 6.704,41.762 20.115,58.688 13.409,16.925 28.93,25.389 46.565,25.389 11.801,0 20.634,-3.449 26.501,-10.345 5.866,-6.896 8.801,-17.239 8.801,-31.03 0,-22.348 -6.774,-41.965 -20.317,-58.853 C 28.395,0.044 12.705,-8.4 -5.13,-8.4" /></g><g
           transform="translate(1227.3066,263.8555)"
           id="g120"><path
             id="path122"
             style="fill:#f50000;fill-opacity:1;fill-rule:nonzero;stroke:none"
             d="m 0,0 c 0,37.659 -5.208,70.233 -15.624,97.724 -3.084,8.024 -5.415,12.663 -6.989,13.915 -1.576,1.25 -6.253,2.171 -14.031,2.759 l -1.81,0.111 1.207,6.852 H -0.905 C 9.62,94.171 15.924,62.301 18.002,25.753 l 18.361,23.765 c 15.718,20.336 23.578,37.947 23.578,52.833 0,6.852 -2.548,13.189 -7.643,19.01 h 24.439 c 1.409,-3.536 2.113,-7.443 2.113,-11.715 0,-7.444 -3.253,-16.359 -9.756,-26.749 C 62.59,72.508 48.074,53.091 25.546,24.648 L 6.135,0 Z" /></g><g
           transform="translate(1390.5371,332.2686)"
           id="g124"><path
             id="path126"
             style="fill:#f50000;fill-opacity:1;fill-rule:nonzero;stroke:none"
             d="m 0,0 6.955,38.358 c -3.872,2.249 -7.845,3.915 -11.918,5.002 -4.073,1.086 -8.278,1.63 -12.617,1.63 -10.015,0 -18.127,-4.973 -24.336,-14.921 -4.94,-7.959 -9.181,-18.569 -12.72,-31.833 -3.538,-13.263 -5.306,-25.201 -5.306,-35.811 0,-5.306 0.803,-9.285 2.409,-11.938 1.606,-2.652 4.013,-3.979 7.225,-3.979 12.78,0 29.548,17.83 50.308,53.492 m -12.17,-67.087 9.181,50.612 c -8.335,-16.165 -17.624,-29.102 -27.867,-38.811 -10.243,-9.709 -19.782,-14.565 -28.618,-14.565 -7.163,0 -12.536,2.326 -16.117,6.969 -3.581,4.646 -5.371,11.58 -5.371,20.799 0,23.968 7.664,46.261 22.993,66.874 15.33,20.614 31.898,30.921 49.706,30.921 1.873,0 4.284,-0.232 7.229,-0.691 C 1.91,54.56 5.426,53.869 9.51,52.948 H 29.292 L 12.919,-38.447 c -1.142,-6.047 -1.71,-11.318 -1.71,-15.815 0,-2.359 0.637,-3.798 1.911,-4.314 1.273,-0.517 5.464,-1.032 12.571,-1.547 l 1.811,-0.111 -1.207,-6.853 z" /></g><g
           transform="translate(1484.0703,266.5078)"
           id="g128"><path
             id="path130"
             style="fill:#0000c2;fill-opacity:1;fill-rule:nonzero;stroke:none"
             d="m 0,0 c -5.727,-2.725 -11.112,-4.09 -16.156,-4.09 -7.636,0 -13.785,2.451 -18.448,7.351 -4.664,4.899 -6.995,11.291 -6.995,19.176 0,3.168 0.403,6.964 1.207,11.385 l 13.773,75.935 h -16.125 l 1.609,8.952 h 16.141 l 3.949,21.774 21.022,6.22 -5.079,-27.994 h 28.435 l -1.71,-8.952 H -6.725 L -21.039,30.842 c -0.671,-4.054 -1.006,-7.886 -1.006,-11.497 0,-4.349 0.956,-7.628 2.87,-9.839 1.913,-2.211 4.791,-3.317 8.635,-3.317 3.363,0 7.445,0.996 12.249,2.985 z" /></g><g
           transform="translate(1538.7588,406.9912)"
           id="g132"><path
             id="path134"
             style="fill:#0000c2;fill-opacity:1;fill-rule:nonzero;stroke:none"
             d="M 0,0 3.946,21.774 H 23.859 L 19.915,0 Z m -25.724,-141.81 16.594,91.409 c 1.071,6.115 1.609,11.346 1.609,15.695 0,2.357 -0.621,3.794 -1.861,4.31 -1.241,0.515 -5.448,1.068 -12.622,1.659 l -1.81,0.11 1.207,6.853 h 38.578 l -16.613,-91.417 c -1.073,-6.041 -1.608,-11.307 -1.608,-15.799 0,-2.359 0.619,-3.796 1.86,-4.311 1.24,-0.514 5.447,-1.03 12.622,-1.545 l 1.81,-0.111 -1.206,-6.853 z" /></g><g
           transform="translate(1609.084,270.8184)"
           id="g136"><path
             id="path138"
             style="fill:#0000c2;fill-opacity:1;fill-rule:nonzero;stroke:none"
             d="m 0,0 c 10.66,0 20.047,7.78 28.16,23.345 8.112,15.563 12.17,33.487 12.17,53.772 0,10.549 -1.544,18.459 -4.627,23.734 -3.085,5.274 -7.744,7.911 -13.979,7.911 -10.394,0 -19.613,-7.967 -27.659,-23.899 -8.045,-15.933 -12.068,-34.226 -12.068,-54.878 0,-8.853 1.675,-16.063 5.028,-21.631 C -9.622,2.784 -5.298,0 0,0 m -5.13,-8.4 c -11.532,0 -20.182,3.466 -25.947,10.398 -5.768,6.933 -8.65,17.295 -8.65,31.087 0,22.199 6.704,41.762 20.115,58.688 13.409,16.925 28.93,25.389 46.565,25.389 11.801,0 20.634,-3.449 26.501,-10.345 5.866,-6.896 8.801,-17.239 8.801,-31.03 0,-22.348 -6.774,-41.965 -20.317,-58.853 C 28.395,0.044 12.705,-8.4 -5.13,-8.4" /></g><g
           transform="translate(1687.9326,265.1816)"
           id="g140"><path
             id="path142"
             style="fill:#0000c2;fill-opacity:1;fill-rule:nonzero;stroke:none"
             d="m 0,0 16.581,91.408 c 1.071,6.115 1.609,11.347 1.609,15.696 0,2.357 -0.621,3.793 -1.861,4.31 -1.241,0.515 -5.448,1.067 -12.622,1.658 l -1.81,0.111 1.207,6.852 h 38.56 L 32.779,71.04 c 8.644,15.925 18.057,28.532 28.242,37.823 10.184,9.29 19.666,13.936 28.444,13.936 5.829,0 10.2,-1.72 13.115,-5.157 2.915,-3.439 4.374,-8.632 4.374,-15.581 0,-3.403 -0.639,-8.651 -1.911,-15.748 L 94.579,28.618 C 93.505,22.577 92.97,17.312 92.97,12.819 c 0,-2.358 0.619,-3.796 1.86,-4.31 1.24,-0.515 5.446,-1.03 12.622,-1.545 L 109.263,6.853 108.056,0 h -38.56 l 16.22,89.419 c 0.669,3.931 1.006,7.044 1.006,9.345 0,2.595 -0.588,4.524 -1.762,5.785 -1.174,1.261 -2.936,1.891 -5.283,1.891 -10.87,0 -27.509,-17.349 -49.918,-52.045 L 19.892,0 Z" /></g><g
           transform="translate(1806.8105,271.8135)"
           id="g144"><path
             id="path146"
             style="fill:#0000c2;fill-opacity:1;fill-rule:nonzero;stroke:none"
             d="m 0,0 4.928,27.411 h 9.856 l -0.201,-1.989 c -0.872,-7.295 -1.308,-11.459 -1.308,-12.49 0,-3.907 2.436,-7.46 7.308,-10.666 4.871,-3.205 10.33,-4.808 16.379,-4.808 5.846,0 10.752,2.009 14.719,6.029 3.965,4.021 5.947,9.019 5.947,14.993 0,5.901 -2.782,12.097 -8.348,18.589 L 38.821,49.237 C 26.617,63.323 20.517,74.829 20.517,83.754 c 0,9.44 3.469,17.201 10.409,23.286 6.939,6.084 15.841,9.127 26.702,9.127 5.23,0 10.359,-0.663 15.388,-1.989 5.029,-1.327 9.957,-3.355 14.785,-6.079 L 82.973,81.461 h -9.857 l 0.201,1.989 c 0.403,3.61 0.738,6.226 1.006,7.848 0.403,2.283 0.604,4.162 0.604,5.637 0,4.2 -1.559,7.331 -4.677,9.395 -3.117,2.062 -7.794,3.095 -14.029,3.095 -4.963,0 -9.119,-1.955 -12.472,-5.865 -3.353,-3.911 -5.028,-8.741 -5.028,-14.494 0,-5.827 3.284,-12.355 9.856,-19.585 L 59.036,58.087 C 70.502,45.549 76.234,34.117 76.234,23.793 76.234,13.835 72.613,5.814 65.372,-0.27 58.131,-6.354 48.542,-9.396 36.608,-9.396 c -5.9,0 -11.902,0.793 -18.003,2.377 C 12.504,-5.435 6.302,-3.095 0,0" /></g></g></g><g
       transform="translate(1411.4434,507.2402)"
       id="g148"><path
         id="path150"
         style="fill:#f50000;fill-opacity:1;fill-rule:nonzero;stroke:none"
         d="m 0,0 -150.137,0.39 0.496,229.734 150.137,-0.39 -0.096,-44.435 -96.884,0.252 -0.086,-39.652 89.915,-0.234 -0.096,-44.435 -89.915,0.234 -0.122,-56.777 96.885,-0.252 z" /></g><g
       transform="translate(1411.4434,507.2402)"
       id="g152"><path
         id="path154"
         style="fill:none;stroke:#0000c3;stroke-width:3;stroke-linecap:butt;stroke-linejoin:miter;stroke-miterlimit:10;stroke-dasharray:none;stroke-opacity:1"
         d="m 0,0 -150.137,0.39 0.496,229.734 150.137,-0.39 -0.096,-44.435 -96.884,0.252 -0.086,-39.652 89.915,-0.234 -0.096,-44.435 -89.915,0.234 -0.122,-56.777 96.885,-0.252 z" /></g><g
       transform="translate(1218.6904,507.7412)"
       id="g156"><path
         id="path158"
         style="fill:#f50000;fill-opacity:1;fill-rule:nonzero;stroke:none"
         d="m 0,0 -57.014,0.147 0.333,153.826 -41.408,-99.718 -39.552,0.103 -40.976,99.932 -0.333,-153.825 -54.029,0.14 0.497,229.735 66.565,-0.173 49.75,-115.383 50.098,115.123 66.565,-0.173 z" /></g><g
       transform="translate(1218.6904,507.7412)"
       id="g160"><path
         id="path162"
         style="fill:none;stroke:#0000c3;stroke-width:3;stroke-linecap:butt;stroke-linejoin:miter;stroke-miterlimit:10;stroke-dasharray:none;stroke-opacity:1"
         d="m 0,0 -57.014,0.147 0.333,153.826 -41.408,-99.718 -39.552,0.103 -40.976,99.932 -0.333,-153.825 -54.029,0.14 0.497,229.735 66.565,-0.173 49.75,-115.383 50.098,115.123 66.565,-0.173 z" /></g><g
       id="g164"><g
         clip-path="url(#clipPath170)"
         id="g166"><g
           transform="translate(958.7539,580.6235)"
           id="g172"><path
             id="path174"
             style="fill:#f50000;fill-opacity:1;fill-rule:nonzero;stroke:none"
             d="m 0,0 c -0.049,-22.629 -8.755,-40.994 -26.118,-55.09 -17.364,-14.098 -40.914,-21.109 -70.653,-21.032 -17.194,0.045 -32.176,1.757 -44.946,5.132 -12.773,3.374 -24.728,7.649 -35.869,12.823 l 0.119,55.08 5.855,-0.015 c 11.037,-9.802 23.404,-17.341 37.102,-22.623 13.696,-5.281 26.864,-7.939 39.504,-7.971 3.252,-0.009 7.528,0.289 12.827,0.892 5.299,0.603 9.622,1.619 12.971,3.052 4.092,1.841 7.467,4.147 10.121,6.917 2.655,2.771 3.988,6.879 4,12.333 0.011,5.038 -1.91,9.39 -5.757,13.052 -3.849,3.66 -9.489,6.478 -16.919,8.452 -7.802,2.077 -16.047,4.027 -24.732,5.851 -8.687,1.821 -16.837,4.132 -24.45,6.929 -17.459,6.319 -30.01,14.863 -37.653,25.633 -7.644,10.767 -11.449,24.123 -11.414,40.067 0.046,21.393 8.748,38.831 26.112,52.313 17.36,13.48 39.655,20.186 66.886,20.116 13.662,-0.036 27.157,-1.536 40.488,-4.503 13.328,-2.966 24.869,-6.675 34.617,-11.121 l -0.114,-52.921 -5.716,0.015 c -8.347,7.427 -18.58,13.65 -30.698,18.671 -12.117,5.02 -24.497,7.547 -37.134,7.58 -4.461,0.012 -8.901,-0.313 -13.315,-0.968 -4.417,-0.66 -8.672,-1.907 -12.764,-3.747 -3.628,-1.534 -6.747,-3.866 -9.355,-6.996 -2.61,-3.132 -3.918,-6.702 -3.926,-10.713 -0.013,-6.07 2.067,-10.729 6.243,-13.979 4.175,-3.251 12.066,-6.229 23.679,-8.934 7.615,-1.77 14.93,-3.486 21.945,-5.148 7.012,-1.665 14.559,-3.948 22.638,-6.848 15.88,-5.802 27.594,-13.675 35.148,-23.62 C -3.726,28.731 0.034,15.839 0,0" /></g><g
           transform="translate(958.7539,580.6235)"
           id="g176"><path
             id="path178"
             style="fill:none;stroke:#0000c3;stroke-width:3;stroke-linecap:butt;stroke-linejoin:miter;stroke-miterlimit:10;stroke-dasharray:none;stroke-opacity:1"
             d="m 0,0 c -0.049,-22.629 -8.755,-40.994 -26.118,-55.09 -17.364,-14.098 -40.914,-21.109 -70.653,-21.032 -17.194,0.045 -32.176,1.757 -44.946,5.132 -12.773,3.374 -24.728,7.649 -35.869,12.823 l 0.119,55.08 5.855,-0.015 c 11.037,-9.802 23.404,-17.341 37.102,-22.623 13.696,-5.281 26.864,-7.939 39.504,-7.971 3.252,-0.009 7.528,0.289 12.827,0.892 5.299,0.603 9.622,1.619 12.971,3.052 4.092,1.841 7.467,4.147 10.121,6.917 2.655,2.771 3.988,6.879 4,12.333 0.011,5.038 -1.91,9.39 -5.757,13.052 -3.849,3.66 -9.489,6.478 -16.919,8.452 -7.802,2.077 -16.047,4.027 -24.732,5.851 -8.687,1.821 -16.837,4.132 -24.45,6.929 -17.459,6.319 -30.01,14.863 -37.653,25.633 -7.644,10.767 -11.449,24.123 -11.414,40.067 0.046,21.393 8.748,38.831 26.112,52.313 17.36,13.48 39.655,20.186 66.886,20.116 13.662,-0.036 27.157,-1.536 40.488,-4.503 13.328,-2.966 24.869,-6.675 34.617,-11.121 l -0.114,-52.921 -5.716,0.015 c -8.347,7.427 -18.58,13.65 -30.698,18.671 -12.117,5.02 -24.497,7.547 -37.134,7.58 -4.461,0.012 -8.901,-0.313 -13.315,-0.968 -4.417,-0.66 -8.672,-1.907 -12.764,-3.747 -3.628,-1.534 -6.747,-3.866 -9.355,-6.996 -2.61,-3.132 -3.918,-6.702 -3.926,-10.713 -0.013,-6.07 2.067,-10.729 6.243,-13.979 4.175,-3.251 12.066,-6.229 23.679,-8.934 7.615,-1.77 14.93,-3.486 21.945,-5.148 7.012,-1.665 14.559,-3.948 22.638,-6.848 15.88,-5.802 27.594,-13.675 35.148,-23.62 C -3.726,28.731 0.034,15.839 0,0 Z" /></g></g></g></g></svg>